%TF.GenerationSoftware,KiCad,Pcbnew,8.0.6*%
%TF.CreationDate,2025-06-23T21:39:08+01:00*%
%TF.ProjectId,blinky,626c696e-6b79-42e6-9b69-6361645f7063,0.1*%
%TF.SameCoordinates,Original*%
%TF.FileFunction,Copper,L2,Bot*%
%TF.FilePolarity,Positive*%
%FSLAX46Y46*%
G04 Gerber Fmt 4.6, Leading zero omitted, Abs format (unit mm)*
G04 Created by KiCad (PCBNEW 8.0.6) date 2025-06-23 21:39:08*
%MOMM*%
%LPD*%
G01*
G04 APERTURE LIST*
%TA.AperFunction,SMDPad,CuDef*%
%ADD10R,5.500000X5.500000*%
%TD*%
%TA.AperFunction,SMDPad,CuDef*%
%ADD11R,4.000000X4.000000*%
%TD*%
%TA.AperFunction,ViaPad*%
%ADD12C,0.800000*%
%TD*%
%TA.AperFunction,Conductor*%
%ADD13C,0.250000*%
%TD*%
G04 APERTURE END LIST*
D10*
%TO.P,BT1,1,+*%
%TO.N,Net-(BT1-+)*%
X118000000Y-59200000D03*
X92400000Y-59200000D03*
D11*
%TO.P,BT1,2,-*%
%TO.N,GND*%
X105200000Y-59200000D03*
%TD*%
D12*
%TO.N,Net-(BT1-+)*%
X92400000Y-55200000D03*
X118000000Y-55100000D03*
%TO.N,GND*%
X98200000Y-67800000D03*
X100900000Y-57200000D03*
X98200000Y-54500000D03*
%TD*%
D13*
%TO.N,Net-(BT1-+)*%
X92400000Y-59200000D02*
X92400000Y-55200000D01*
X118000000Y-55100000D02*
X118000000Y-59200000D01*
X118000000Y-55100000D02*
X117875000Y-55225000D01*
%TD*%
%TA.AperFunction,Conductor*%
%TO.N,GND*%
G36*
X121892539Y-44490185D02*
G01*
X121938294Y-44542989D01*
X121949500Y-44594500D01*
X121949500Y-73845500D01*
X121929815Y-73912539D01*
X121877011Y-73958294D01*
X121825500Y-73969500D01*
X88574500Y-73969500D01*
X88507461Y-73949815D01*
X88461706Y-73897011D01*
X88450500Y-73845500D01*
X88450500Y-56402135D01*
X89149500Y-56402135D01*
X89149500Y-61997870D01*
X89149501Y-61997876D01*
X89155908Y-62057483D01*
X89206202Y-62192328D01*
X89206206Y-62192335D01*
X89292452Y-62307544D01*
X89292455Y-62307547D01*
X89407664Y-62393793D01*
X89407671Y-62393797D01*
X89542517Y-62444091D01*
X89542516Y-62444091D01*
X89549444Y-62444835D01*
X89602127Y-62450500D01*
X95197872Y-62450499D01*
X95257483Y-62444091D01*
X95392331Y-62393796D01*
X95507546Y-62307546D01*
X95593796Y-62192331D01*
X95644091Y-62057483D01*
X95650500Y-61997873D01*
X95650500Y-61684722D01*
X103068829Y-61684722D01*
X103068829Y-61684723D01*
X103092624Y-61693598D01*
X103152155Y-61699999D01*
X103152172Y-61700000D01*
X107247828Y-61700000D01*
X107247844Y-61699999D01*
X107307372Y-61693598D01*
X107307378Y-61693597D01*
X107331168Y-61684723D01*
X107331168Y-61684722D01*
X105200001Y-59553553D01*
X105200000Y-59553553D01*
X103068829Y-61684722D01*
X95650500Y-61684722D01*
X95650499Y-57152155D01*
X102700000Y-57152155D01*
X102700000Y-61247844D01*
X102706401Y-61307372D01*
X102706403Y-61307382D01*
X102715275Y-61331168D01*
X102715276Y-61331169D01*
X104846446Y-59200000D01*
X104846446Y-59199999D01*
X105553553Y-59199999D01*
X107684722Y-61331168D01*
X107684723Y-61331168D01*
X107693597Y-61307378D01*
X107693598Y-61307372D01*
X107699999Y-61247844D01*
X107700000Y-61247827D01*
X107700000Y-57152172D01*
X107699999Y-57152155D01*
X107693598Y-57092624D01*
X107684722Y-57068829D01*
X105553553Y-59199999D01*
X104846446Y-59199999D01*
X102715276Y-57068829D01*
X102706401Y-57092626D01*
X102700000Y-57152155D01*
X95650499Y-57152155D01*
X95650499Y-56715276D01*
X103068829Y-56715276D01*
X105200000Y-58846446D01*
X105200001Y-58846446D01*
X107331169Y-56715276D01*
X107331168Y-56715275D01*
X107307382Y-56706403D01*
X107307372Y-56706401D01*
X107247844Y-56700000D01*
X103152155Y-56700000D01*
X103092626Y-56706401D01*
X103068829Y-56715276D01*
X95650499Y-56715276D01*
X95650499Y-56402135D01*
X114749500Y-56402135D01*
X114749500Y-61997870D01*
X114749501Y-61997876D01*
X114755908Y-62057483D01*
X114806202Y-62192328D01*
X114806206Y-62192335D01*
X114892452Y-62307544D01*
X114892455Y-62307547D01*
X115007664Y-62393793D01*
X115007671Y-62393797D01*
X115142517Y-62444091D01*
X115142516Y-62444091D01*
X115149444Y-62444835D01*
X115202127Y-62450500D01*
X120797872Y-62450499D01*
X120857483Y-62444091D01*
X120992331Y-62393796D01*
X121107546Y-62307546D01*
X121193796Y-62192331D01*
X121244091Y-62057483D01*
X121250500Y-61997873D01*
X121250499Y-56402128D01*
X121244091Y-56342517D01*
X121193796Y-56207669D01*
X121193795Y-56207668D01*
X121193793Y-56207664D01*
X121107547Y-56092455D01*
X121107544Y-56092452D01*
X120992335Y-56006206D01*
X120992328Y-56006202D01*
X120857482Y-55955908D01*
X120857483Y-55955908D01*
X120797883Y-55949501D01*
X120797881Y-55949500D01*
X120797873Y-55949500D01*
X120797865Y-55949500D01*
X118749500Y-55949500D01*
X118682461Y-55929815D01*
X118636706Y-55877011D01*
X118625500Y-55825500D01*
X118625500Y-55798687D01*
X118645185Y-55731648D01*
X118657350Y-55715715D01*
X118675891Y-55695122D01*
X118732533Y-55632216D01*
X118827179Y-55468284D01*
X118885674Y-55288256D01*
X118905460Y-55100000D01*
X118885674Y-54911744D01*
X118827179Y-54731716D01*
X118732533Y-54567784D01*
X118605871Y-54427112D01*
X118590369Y-54415849D01*
X118452734Y-54315851D01*
X118452729Y-54315848D01*
X118279807Y-54238857D01*
X118279802Y-54238855D01*
X118134001Y-54207865D01*
X118094646Y-54199500D01*
X117905354Y-54199500D01*
X117872897Y-54206398D01*
X117720197Y-54238855D01*
X117720192Y-54238857D01*
X117547270Y-54315848D01*
X117547265Y-54315851D01*
X117394129Y-54427111D01*
X117267466Y-54567785D01*
X117172821Y-54731715D01*
X117172818Y-54731722D01*
X117114327Y-54911740D01*
X117114326Y-54911744D01*
X117094540Y-55100000D01*
X117114326Y-55288256D01*
X117114327Y-55288259D01*
X117172818Y-55468277D01*
X117172821Y-55468284D01*
X117267467Y-55632216D01*
X117310772Y-55680310D01*
X117342650Y-55715715D01*
X117372880Y-55778706D01*
X117374500Y-55798687D01*
X117374500Y-55825500D01*
X117354815Y-55892539D01*
X117302011Y-55938294D01*
X117250500Y-55949500D01*
X115202129Y-55949500D01*
X115202123Y-55949501D01*
X115142516Y-55955908D01*
X115007671Y-56006202D01*
X115007664Y-56006206D01*
X114892455Y-56092452D01*
X114892452Y-56092455D01*
X114806206Y-56207664D01*
X114806202Y-56207671D01*
X114755908Y-56342517D01*
X114749501Y-56402116D01*
X114749501Y-56402123D01*
X114749500Y-56402135D01*
X95650499Y-56402135D01*
X95650499Y-56402128D01*
X95644091Y-56342517D01*
X95593796Y-56207669D01*
X95593795Y-56207668D01*
X95593793Y-56207664D01*
X95507547Y-56092455D01*
X95507544Y-56092452D01*
X95392335Y-56006206D01*
X95392328Y-56006202D01*
X95257482Y-55955908D01*
X95257483Y-55955908D01*
X95197883Y-55949501D01*
X95197881Y-55949500D01*
X95197873Y-55949500D01*
X95197865Y-55949500D01*
X93215398Y-55949500D01*
X93148359Y-55929815D01*
X93102604Y-55877011D01*
X93092660Y-55807853D01*
X93121685Y-55744297D01*
X93123248Y-55742528D01*
X93123544Y-55742198D01*
X93132533Y-55732216D01*
X93227179Y-55568284D01*
X93285674Y-55388256D01*
X93305460Y-55200000D01*
X93285674Y-55011744D01*
X93227179Y-54831716D01*
X93132533Y-54667784D01*
X93005871Y-54527112D01*
X93005870Y-54527111D01*
X92852734Y-54415851D01*
X92852729Y-54415848D01*
X92679807Y-54338857D01*
X92679802Y-54338855D01*
X92534001Y-54307865D01*
X92494646Y-54299500D01*
X92305354Y-54299500D01*
X92272897Y-54306398D01*
X92120197Y-54338855D01*
X92120192Y-54338857D01*
X91947270Y-54415848D01*
X91947265Y-54415851D01*
X91794129Y-54527111D01*
X91667466Y-54667785D01*
X91572821Y-54831715D01*
X91572818Y-54831722D01*
X91514327Y-55011740D01*
X91514326Y-55011744D01*
X91494540Y-55200000D01*
X91514326Y-55388256D01*
X91514327Y-55388259D01*
X91572818Y-55568277D01*
X91572821Y-55568284D01*
X91667467Y-55732216D01*
X91676110Y-55741815D01*
X91676752Y-55742528D01*
X91706982Y-55805519D01*
X91698357Y-55874855D01*
X91653615Y-55928520D01*
X91586963Y-55949478D01*
X91584602Y-55949500D01*
X89602129Y-55949500D01*
X89602123Y-55949501D01*
X89542516Y-55955908D01*
X89407671Y-56006202D01*
X89407664Y-56006206D01*
X89292455Y-56092452D01*
X89292452Y-56092455D01*
X89206206Y-56207664D01*
X89206202Y-56207671D01*
X89155908Y-56342517D01*
X89149501Y-56402116D01*
X89149501Y-56402123D01*
X89149500Y-56402135D01*
X88450500Y-56402135D01*
X88450500Y-44594500D01*
X88470185Y-44527461D01*
X88522989Y-44481706D01*
X88574500Y-44470500D01*
X121825500Y-44470500D01*
X121892539Y-44490185D01*
G37*
%TD.AperFunction*%
%TD*%
M02*
