%TF.GenerationSoftware,KiCad,Pcbnew,8.0.6*%
%TF.CreationDate,2025-06-23T21:39:08+01:00*%
%TF.ProjectId,blinky,626c696e-6b79-42e6-9b69-6361645f7063,0.1*%
%TF.SameCoordinates,Original*%
%TF.FileFunction,Copper,L1,Top*%
%TF.FilePolarity,Positive*%
%FSLAX46Y46*%
G04 Gerber Fmt 4.6, Leading zero omitted, Abs format (unit mm)*
G04 Created by KiCad (PCBNEW 8.0.6) date 2025-06-23 21:39:08*
%MOMM*%
%LPD*%
G01*
G04 APERTURE LIST*
G04 Aperture macros list*
%AMRoundRect*
0 Rectangle with rounded corners*
0 $1 Rounding radius*
0 $2 $3 $4 $5 $6 $7 $8 $9 X,Y pos of 4 corners*
0 Add a 4 corners polygon primitive as box body*
4,1,4,$2,$3,$4,$5,$6,$7,$8,$9,$2,$3,0*
0 Add four circle primitives for the rounded corners*
1,1,$1+$1,$2,$3*
1,1,$1+$1,$4,$5*
1,1,$1+$1,$6,$7*
1,1,$1+$1,$8,$9*
0 Add four rect primitives between the rounded corners*
20,1,$1+$1,$2,$3,$4,$5,0*
20,1,$1+$1,$4,$5,$6,$7,0*
20,1,$1+$1,$6,$7,$8,$9,0*
20,1,$1+$1,$8,$9,$2,$3,0*%
G04 Aperture macros list end*
%TA.AperFunction,SMDPad,CuDef*%
%ADD10RoundRect,0.250000X0.450000X-0.325000X0.450000X0.325000X-0.450000X0.325000X-0.450000X-0.325000X0*%
%TD*%
%TA.AperFunction,SMDPad,CuDef*%
%ADD11RoundRect,0.250000X-0.450000X0.350000X-0.450000X-0.350000X0.450000X-0.350000X0.450000X0.350000X0*%
%TD*%
%TA.AperFunction,SMDPad,CuDef*%
%ADD12RoundRect,0.150000X-0.825000X-0.150000X0.825000X-0.150000X0.825000X0.150000X-0.825000X0.150000X0*%
%TD*%
%TA.AperFunction,SMDPad,CuDef*%
%ADD13RoundRect,0.250000X0.475000X-0.337500X0.475000X0.337500X-0.475000X0.337500X-0.475000X-0.337500X0*%
%TD*%
%TA.AperFunction,ViaPad*%
%ADD14C,0.800000*%
%TD*%
%TA.AperFunction,Conductor*%
%ADD15C,0.250000*%
%TD*%
G04 APERTURE END LIST*
D10*
%TO.P,D1,1,K*%
%TO.N,GND*%
X98200000Y-66250000D03*
%TO.P,D1,2,A*%
%TO.N,Net-(D1-A)*%
X98200000Y-64200000D03*
%TD*%
D11*
%TO.P,R2,1*%
%TO.N,Net-(U1-DIS)*%
X111700000Y-60200000D03*
%TO.P,R2,2*%
%TO.N,Net-(U1-THR)*%
X111700000Y-62200000D03*
%TD*%
%TO.P,R3,1*%
%TO.N,Net-(U1-OUT)*%
X98200000Y-60200000D03*
%TO.P,R3,2*%
%TO.N,Net-(D1-A)*%
X98200000Y-62200000D03*
%TD*%
%TO.P,R1,1*%
%TO.N,Net-(BT1-+)*%
X111700000Y-56200000D03*
%TO.P,R1,2*%
%TO.N,Net-(U1-DIS)*%
X111700000Y-58200000D03*
%TD*%
D12*
%TO.P,U1,1,GND*%
%TO.N,GND*%
X102750000Y-57200000D03*
%TO.P,U1,2,~TRIG~*%
%TO.N,Net-(U1-THR)*%
X102750000Y-58470000D03*
%TO.P,U1,3,OUT*%
%TO.N,Net-(U1-OUT)*%
X102750000Y-59740000D03*
%TO.P,U1,4,~RST~*%
%TO.N,Net-(BT1-+)*%
X102750000Y-61010000D03*
%TO.P,U1,5,CTRL*%
%TO.N,unconnected-(U1-CTRL-Pad5)*%
X107700000Y-61010000D03*
%TO.P,U1,6,THR*%
%TO.N,Net-(U1-THR)*%
X107700000Y-59740000D03*
%TO.P,U1,7,DIS*%
%TO.N,Net-(U1-DIS)*%
X107700000Y-58470000D03*
%TO.P,U1,8,VDD*%
%TO.N,Net-(BT1-+)*%
X107700000Y-57200000D03*
%TD*%
D13*
%TO.P,C1,1*%
%TO.N,Net-(U1-THR)*%
X98200000Y-58200000D03*
%TO.P,C1,2*%
%TO.N,GND*%
X98200000Y-56125000D03*
%TD*%
D14*
%TO.N,Net-(BT1-+)*%
X92400000Y-55200000D03*
X118000000Y-55100000D03*
%TO.N,GND*%
X98200000Y-67800000D03*
X100900000Y-57200000D03*
X98200000Y-54500000D03*
%TD*%
D15*
%TO.N,Net-(BT1-+)*%
X111700000Y-56200000D02*
X110000000Y-56200000D01*
X109000000Y-57200000D02*
X110000000Y-56200000D01*
X107700000Y-57200000D02*
X109000000Y-57200000D01*
X107900000Y-57200000D02*
X108000000Y-57100000D01*
%TO.N,GND*%
X102750000Y-57200000D02*
X101000000Y-57200000D01*
X98200000Y-67800000D02*
X98200000Y-66250000D01*
X98200000Y-56125000D02*
X98200000Y-54500000D01*
X101000000Y-57200000D02*
X100900000Y-57200000D01*
%TO.N,Net-(U1-THR)*%
X102750000Y-58470000D02*
X104570000Y-58470000D01*
X110000000Y-61600000D02*
X110000000Y-60400000D01*
X105840000Y-59740000D02*
X107700000Y-59740000D01*
X109340000Y-59740000D02*
X107700000Y-59740000D01*
X102750000Y-58470000D02*
X100470000Y-58470000D01*
X110600000Y-62200000D02*
X110000000Y-61600000D01*
X100200000Y-58200000D02*
X98200000Y-58200000D01*
X100470000Y-58470000D02*
X100200000Y-58200000D01*
X111700000Y-62200000D02*
X110600000Y-62200000D01*
X104570000Y-58470000D02*
X105840000Y-59740000D01*
X110000000Y-60400000D02*
X109340000Y-59740000D01*
%TO.N,Net-(D1-A)*%
X98200000Y-62200000D02*
X98200000Y-64200000D01*
%TO.N,Net-(U1-DIS)*%
X109900000Y-58200000D02*
X111700000Y-58200000D01*
X111700000Y-58200000D02*
X111700000Y-60200000D01*
X109630000Y-58470000D02*
X109900000Y-58200000D01*
X107700000Y-58470000D02*
X109630000Y-58470000D01*
%TO.N,Net-(U1-OUT)*%
X102640000Y-59740000D02*
X102600000Y-59700000D01*
X102750000Y-59740000D02*
X102640000Y-59740000D01*
X102600000Y-59700000D02*
X100500000Y-59700000D01*
X100500000Y-59700000D02*
X100000000Y-60200000D01*
X100000000Y-60200000D02*
X98200000Y-60200000D01*
%TD*%
%TA.AperFunction,Conductor*%
%TO.N,Net-(BT1-+)*%
G36*
X121892539Y-44490185D02*
G01*
X121938294Y-44542989D01*
X121949500Y-44594500D01*
X121949500Y-73845500D01*
X121929815Y-73912539D01*
X121877011Y-73958294D01*
X121825500Y-73969500D01*
X88574500Y-73969500D01*
X88507461Y-73949815D01*
X88461706Y-73897011D01*
X88450500Y-73845500D01*
X88450500Y-55737483D01*
X96974500Y-55737483D01*
X96974500Y-56512501D01*
X96974501Y-56512519D01*
X96985000Y-56615296D01*
X96985001Y-56615299D01*
X97040185Y-56781831D01*
X97040186Y-56781834D01*
X97094023Y-56869119D01*
X97132289Y-56931157D01*
X97256346Y-57055214D01*
X97259182Y-57056963D01*
X97260717Y-57058670D01*
X97262011Y-57059693D01*
X97261836Y-57059914D01*
X97305905Y-57108911D01*
X97317126Y-57177874D01*
X97289282Y-57241956D01*
X97259182Y-57268037D01*
X97256346Y-57269785D01*
X97132289Y-57393842D01*
X97040187Y-57543163D01*
X97040185Y-57543168D01*
X97029803Y-57574499D01*
X96985001Y-57709703D01*
X96985001Y-57709704D01*
X96985000Y-57709704D01*
X96974500Y-57812483D01*
X96974500Y-58587501D01*
X96974501Y-58587519D01*
X96985000Y-58690296D01*
X96985001Y-58690299D01*
X97040185Y-58856831D01*
X97040187Y-58856836D01*
X97075069Y-58913388D01*
X97123507Y-58991920D01*
X97132289Y-59006157D01*
X97244701Y-59118569D01*
X97278186Y-59179892D01*
X97273202Y-59249584D01*
X97244701Y-59293931D01*
X97157289Y-59381342D01*
X97065187Y-59530663D01*
X97065185Y-59530668D01*
X97057184Y-59554815D01*
X97010001Y-59697203D01*
X97010001Y-59697204D01*
X97010000Y-59697204D01*
X96999500Y-59799983D01*
X96999500Y-60600001D01*
X96999501Y-60600019D01*
X97010000Y-60702796D01*
X97010001Y-60702799D01*
X97065185Y-60869331D01*
X97065187Y-60869336D01*
X97157289Y-61018657D01*
X97250951Y-61112319D01*
X97284436Y-61173642D01*
X97279452Y-61243334D01*
X97250951Y-61287681D01*
X97157289Y-61381342D01*
X97065187Y-61530663D01*
X97065185Y-61530668D01*
X97054846Y-61561870D01*
X97010001Y-61697203D01*
X97010001Y-61697204D01*
X97010000Y-61697204D01*
X96999500Y-61799983D01*
X96999500Y-62600001D01*
X96999501Y-62600019D01*
X97010000Y-62702796D01*
X97010001Y-62702799D01*
X97046676Y-62813476D01*
X97065186Y-62869334D01*
X97157287Y-63018655D01*
X97157289Y-63018657D01*
X97263451Y-63124819D01*
X97296936Y-63186142D01*
X97291952Y-63255834D01*
X97263451Y-63300181D01*
X97157289Y-63406342D01*
X97065187Y-63555663D01*
X97065186Y-63555666D01*
X97010001Y-63722203D01*
X97010001Y-63722204D01*
X97010000Y-63722204D01*
X96999500Y-63824983D01*
X96999500Y-64575001D01*
X96999501Y-64575019D01*
X97010000Y-64677796D01*
X97010001Y-64677799D01*
X97065185Y-64844331D01*
X97065187Y-64844336D01*
X97157289Y-64993657D01*
X97281346Y-65117714D01*
X97284182Y-65119463D01*
X97285717Y-65121170D01*
X97287011Y-65122193D01*
X97286836Y-65122414D01*
X97330905Y-65171411D01*
X97342126Y-65240374D01*
X97314282Y-65304456D01*
X97284182Y-65330537D01*
X97281346Y-65332285D01*
X97157289Y-65456342D01*
X97065187Y-65605663D01*
X97065186Y-65605666D01*
X97010001Y-65772203D01*
X97010001Y-65772204D01*
X97010000Y-65772204D01*
X96999500Y-65874983D01*
X96999500Y-66625001D01*
X96999501Y-66625019D01*
X97010000Y-66727796D01*
X97010001Y-66727799D01*
X97065185Y-66894331D01*
X97065187Y-66894336D01*
X97157289Y-67043657D01*
X97281344Y-67167712D01*
X97358682Y-67215414D01*
X97405407Y-67267362D01*
X97416630Y-67336324D01*
X97400974Y-67382952D01*
X97372820Y-67431716D01*
X97314327Y-67611740D01*
X97314326Y-67611744D01*
X97294540Y-67800000D01*
X97314326Y-67988256D01*
X97314327Y-67988259D01*
X97372818Y-68168277D01*
X97372821Y-68168284D01*
X97467467Y-68332216D01*
X97594129Y-68472888D01*
X97747265Y-68584148D01*
X97747270Y-68584151D01*
X97920192Y-68661142D01*
X97920197Y-68661144D01*
X98105354Y-68700500D01*
X98105355Y-68700500D01*
X98294644Y-68700500D01*
X98294646Y-68700500D01*
X98479803Y-68661144D01*
X98652730Y-68584151D01*
X98805871Y-68472888D01*
X98932533Y-68332216D01*
X99027179Y-68168284D01*
X99085674Y-67988256D01*
X99105460Y-67800000D01*
X99085674Y-67611744D01*
X99027179Y-67431716D01*
X98999024Y-67382950D01*
X98982552Y-67315053D01*
X99005404Y-67249026D01*
X99041311Y-67215418D01*
X99118656Y-67167712D01*
X99242712Y-67043656D01*
X99334814Y-66894334D01*
X99389999Y-66727797D01*
X99400500Y-66625009D01*
X99400499Y-65874992D01*
X99389999Y-65772203D01*
X99334814Y-65605666D01*
X99242712Y-65456344D01*
X99118656Y-65332288D01*
X99115819Y-65330538D01*
X99114283Y-65328830D01*
X99112989Y-65327807D01*
X99113163Y-65327585D01*
X99069096Y-65278594D01*
X99057872Y-65209632D01*
X99085713Y-65145549D01*
X99115817Y-65119462D01*
X99118656Y-65117712D01*
X99242712Y-64993656D01*
X99334814Y-64844334D01*
X99389999Y-64677797D01*
X99400500Y-64575009D01*
X99400499Y-63824992D01*
X99389999Y-63722203D01*
X99334814Y-63555666D01*
X99242712Y-63406344D01*
X99136549Y-63300181D01*
X99103064Y-63238858D01*
X99108048Y-63169166D01*
X99136549Y-63124819D01*
X99242712Y-63018656D01*
X99334814Y-62869334D01*
X99389999Y-62702797D01*
X99400500Y-62600009D01*
X99400499Y-61799992D01*
X99398707Y-61782453D01*
X99389999Y-61697203D01*
X99389998Y-61697200D01*
X99378202Y-61661603D01*
X99334814Y-61530666D01*
X99242712Y-61381344D01*
X99149049Y-61287681D01*
X99133935Y-61260001D01*
X101277704Y-61260001D01*
X101277899Y-61262486D01*
X101323718Y-61420198D01*
X101407314Y-61561552D01*
X101407321Y-61561561D01*
X101523438Y-61677678D01*
X101523447Y-61677685D01*
X101664803Y-61761282D01*
X101664806Y-61761283D01*
X101822504Y-61807099D01*
X101822510Y-61807100D01*
X101859350Y-61809999D01*
X101859366Y-61810000D01*
X102500000Y-61810000D01*
X103000000Y-61810000D01*
X103640634Y-61810000D01*
X103640649Y-61809999D01*
X103677489Y-61807100D01*
X103677495Y-61807099D01*
X103835193Y-61761283D01*
X103835196Y-61761282D01*
X103976552Y-61677685D01*
X103976561Y-61677678D01*
X104092678Y-61561561D01*
X104092685Y-61561552D01*
X104176281Y-61420198D01*
X104222100Y-61262486D01*
X104222295Y-61260001D01*
X104222295Y-61260000D01*
X103000000Y-61260000D01*
X103000000Y-61810000D01*
X102500000Y-61810000D01*
X102500000Y-61260000D01*
X101277705Y-61260000D01*
X101277704Y-61260001D01*
X99133935Y-61260001D01*
X99115564Y-61226358D01*
X99120548Y-61156666D01*
X99149049Y-61112319D01*
X99242712Y-61018656D01*
X99325519Y-60884402D01*
X99377467Y-60837679D01*
X99431058Y-60825500D01*
X100061607Y-60825500D01*
X100122029Y-60813481D01*
X100182452Y-60801463D01*
X100182455Y-60801461D01*
X100182458Y-60801461D01*
X100215787Y-60787654D01*
X100215786Y-60787654D01*
X100215792Y-60787652D01*
X100296286Y-60754312D01*
X100347509Y-60720084D01*
X100398733Y-60685858D01*
X100485858Y-60598733D01*
X100485860Y-60598729D01*
X100722772Y-60361816D01*
X100784094Y-60328334D01*
X100810452Y-60325500D01*
X101268545Y-60325500D01*
X101335584Y-60345185D01*
X101381339Y-60397989D01*
X101391283Y-60467147D01*
X101375277Y-60512621D01*
X101323718Y-60599801D01*
X101277899Y-60757513D01*
X101277704Y-60759998D01*
X101277705Y-60760000D01*
X104222295Y-60760000D01*
X104222295Y-60759998D01*
X104222100Y-60757513D01*
X104176281Y-60599801D01*
X104092685Y-60458447D01*
X104087900Y-60452278D01*
X104090366Y-60450364D01*
X104063802Y-60401776D01*
X104068749Y-60332082D01*
X104089856Y-60299232D01*
X104088301Y-60298026D01*
X104093077Y-60291868D01*
X104093081Y-60291865D01*
X104176744Y-60150398D01*
X104222598Y-59992569D01*
X104225500Y-59955694D01*
X104225500Y-59524306D01*
X104222598Y-59487431D01*
X104176744Y-59329602D01*
X104148958Y-59282619D01*
X104131778Y-59214896D01*
X104153938Y-59148634D01*
X104208404Y-59104871D01*
X104255692Y-59095500D01*
X104259548Y-59095500D01*
X104326587Y-59115185D01*
X104347229Y-59131819D01*
X105351016Y-60135606D01*
X105351045Y-60135637D01*
X105441263Y-60225855D01*
X105441267Y-60225858D01*
X105543707Y-60294307D01*
X105543716Y-60294312D01*
X105555594Y-60299232D01*
X105657548Y-60341463D01*
X105717971Y-60353481D01*
X105778393Y-60365500D01*
X105778394Y-60365500D01*
X106194308Y-60365500D01*
X106261347Y-60385185D01*
X106307102Y-60437989D01*
X106317046Y-60507147D01*
X106301041Y-60552620D01*
X106273254Y-60599605D01*
X106273254Y-60599606D01*
X106227402Y-60757426D01*
X106227401Y-60757432D01*
X106224500Y-60794298D01*
X106224500Y-61225701D01*
X106227401Y-61262567D01*
X106227402Y-61262573D01*
X106273254Y-61420393D01*
X106273255Y-61420396D01*
X106356917Y-61561862D01*
X106356923Y-61561870D01*
X106473129Y-61678076D01*
X106473133Y-61678079D01*
X106473135Y-61678081D01*
X106614602Y-61761744D01*
X106656224Y-61773836D01*
X106772426Y-61807597D01*
X106772429Y-61807597D01*
X106772431Y-61807598D01*
X106809306Y-61810500D01*
X106809314Y-61810500D01*
X108590686Y-61810500D01*
X108590694Y-61810500D01*
X108627569Y-61807598D01*
X108627571Y-61807597D01*
X108627573Y-61807597D01*
X108669191Y-61795505D01*
X108785398Y-61761744D01*
X108926865Y-61678081D01*
X109043081Y-61561865D01*
X109126744Y-61420398D01*
X109131423Y-61404291D01*
X109169029Y-61345406D01*
X109232502Y-61316199D01*
X109301688Y-61325945D01*
X109354623Y-61371548D01*
X109374499Y-61438531D01*
X109374500Y-61438886D01*
X109374500Y-61661606D01*
X109381581Y-61697204D01*
X109398537Y-61782453D01*
X109408953Y-61807598D01*
X109408953Y-61807599D01*
X109445685Y-61896280D01*
X109445690Y-61896289D01*
X109479914Y-61947507D01*
X109479915Y-61947509D01*
X109514141Y-61998733D01*
X109605586Y-62090178D01*
X109605608Y-62090198D01*
X110111016Y-62595606D01*
X110111045Y-62595637D01*
X110201264Y-62685856D01*
X110201267Y-62685858D01*
X110252490Y-62720084D01*
X110303714Y-62754312D01*
X110384207Y-62787652D01*
X110417548Y-62801463D01*
X110477971Y-62813481D01*
X110485128Y-62814904D01*
X110547037Y-62847286D01*
X110566474Y-62871423D01*
X110657288Y-63018656D01*
X110781344Y-63142712D01*
X110930666Y-63234814D01*
X111097203Y-63289999D01*
X111199991Y-63300500D01*
X112200008Y-63300499D01*
X112200016Y-63300498D01*
X112200019Y-63300498D01*
X112256302Y-63294748D01*
X112302797Y-63289999D01*
X112469334Y-63234814D01*
X112618656Y-63142712D01*
X112742712Y-63018656D01*
X112834814Y-62869334D01*
X112889999Y-62702797D01*
X112900500Y-62600009D01*
X112900499Y-61799992D01*
X112898707Y-61782453D01*
X112889999Y-61697203D01*
X112889998Y-61697200D01*
X112878202Y-61661603D01*
X112834814Y-61530666D01*
X112742712Y-61381344D01*
X112649049Y-61287681D01*
X112615564Y-61226358D01*
X112620548Y-61156666D01*
X112649049Y-61112319D01*
X112742712Y-61018656D01*
X112834814Y-60869334D01*
X112889999Y-60702797D01*
X112900500Y-60600009D01*
X112900499Y-59799992D01*
X112889999Y-59697203D01*
X112834814Y-59530666D01*
X112742712Y-59381344D01*
X112649049Y-59287681D01*
X112615564Y-59226358D01*
X112620548Y-59156666D01*
X112649049Y-59112319D01*
X112689905Y-59071463D01*
X112742712Y-59018656D01*
X112834814Y-58869334D01*
X112889999Y-58702797D01*
X112900500Y-58600009D01*
X112900499Y-57799992D01*
X112889999Y-57697203D01*
X112834814Y-57530666D01*
X112742712Y-57381344D01*
X112648695Y-57287327D01*
X112615210Y-57226004D01*
X112620194Y-57156312D01*
X112648695Y-57111964D01*
X112742317Y-57018342D01*
X112834356Y-56869124D01*
X112834358Y-56869119D01*
X112889505Y-56702697D01*
X112889506Y-56702690D01*
X112899999Y-56599986D01*
X112900000Y-56599973D01*
X112900000Y-56450000D01*
X110500001Y-56450000D01*
X110500001Y-56599986D01*
X110510494Y-56702697D01*
X110565641Y-56869119D01*
X110565643Y-56869124D01*
X110657684Y-57018345D01*
X110751304Y-57111965D01*
X110784789Y-57173288D01*
X110779805Y-57242980D01*
X110751305Y-57287327D01*
X110657287Y-57381345D01*
X110574481Y-57515597D01*
X110522533Y-57562321D01*
X110468942Y-57574500D01*
X109967741Y-57574500D01*
X109967721Y-57574499D01*
X109961607Y-57574499D01*
X109838394Y-57574499D01*
X109737597Y-57594548D01*
X109737592Y-57594548D01*
X109717549Y-57598536D01*
X109717547Y-57598536D01*
X109670397Y-57618067D01*
X109603719Y-57645685D01*
X109603717Y-57645686D01*
X109501268Y-57714140D01*
X109463857Y-57751552D01*
X109407226Y-57808182D01*
X109345906Y-57841666D01*
X109319547Y-57844500D01*
X109205111Y-57844500D01*
X109138072Y-57824815D01*
X109092317Y-57772011D01*
X109082373Y-57702853D01*
X109098379Y-57657379D01*
X109126281Y-57610198D01*
X109172100Y-57452486D01*
X109172295Y-57450001D01*
X109172295Y-57450000D01*
X106227705Y-57450000D01*
X106227704Y-57450001D01*
X106227899Y-57452486D01*
X106273718Y-57610198D01*
X106357314Y-57751552D01*
X106362100Y-57757722D01*
X106359640Y-57759629D01*
X106386210Y-57808288D01*
X106381226Y-57877980D01*
X106360162Y-57910781D01*
X106361699Y-57911974D01*
X106356915Y-57918140D01*
X106273255Y-58059603D01*
X106273254Y-58059606D01*
X106227402Y-58217426D01*
X106227401Y-58217432D01*
X106224500Y-58254298D01*
X106224500Y-58685701D01*
X106227401Y-58722567D01*
X106227402Y-58722573D01*
X106273254Y-58880393D01*
X106273254Y-58880394D01*
X106301041Y-58927380D01*
X106318222Y-58995104D01*
X106296062Y-59061366D01*
X106241596Y-59105129D01*
X106194308Y-59114500D01*
X106150452Y-59114500D01*
X106083413Y-59094815D01*
X106062771Y-59078181D01*
X105060198Y-58075608D01*
X105060178Y-58075586D01*
X104968733Y-57984141D01*
X104917509Y-57949915D01*
X104866286Y-57915688D01*
X104866283Y-57915686D01*
X104866280Y-57915685D01*
X104785792Y-57882347D01*
X104752453Y-57868537D01*
X104742427Y-57866543D01*
X104692029Y-57856518D01*
X104631610Y-57844500D01*
X104631607Y-57844500D01*
X104631606Y-57844500D01*
X104255692Y-57844500D01*
X104188653Y-57824815D01*
X104142898Y-57772011D01*
X104132954Y-57702853D01*
X104148959Y-57657380D01*
X104148960Y-57657379D01*
X104176744Y-57610398D01*
X104222598Y-57452569D01*
X104225500Y-57415694D01*
X104225500Y-56984306D01*
X104222800Y-56949998D01*
X106227704Y-56949998D01*
X106227705Y-56950000D01*
X107450000Y-56950000D01*
X107950000Y-56950000D01*
X109172295Y-56950000D01*
X109172295Y-56949998D01*
X109172100Y-56947513D01*
X109126281Y-56789801D01*
X109042685Y-56648447D01*
X109042678Y-56648438D01*
X108926561Y-56532321D01*
X108926552Y-56532314D01*
X108785196Y-56448717D01*
X108785193Y-56448716D01*
X108627495Y-56402900D01*
X108627489Y-56402899D01*
X108590649Y-56400000D01*
X107950000Y-56400000D01*
X107950000Y-56950000D01*
X107450000Y-56950000D01*
X107450000Y-56400000D01*
X106809350Y-56400000D01*
X106772510Y-56402899D01*
X106772504Y-56402900D01*
X106614806Y-56448716D01*
X106614803Y-56448717D01*
X106473447Y-56532314D01*
X106473438Y-56532321D01*
X106357321Y-56648438D01*
X106357314Y-56648447D01*
X106273718Y-56789801D01*
X106227899Y-56947513D01*
X106227704Y-56949998D01*
X104222800Y-56949998D01*
X104222598Y-56947431D01*
X104199847Y-56869124D01*
X104176745Y-56789606D01*
X104176744Y-56789603D01*
X104176744Y-56789602D01*
X104093081Y-56648135D01*
X104093079Y-56648133D01*
X104093076Y-56648129D01*
X103976870Y-56531923D01*
X103976862Y-56531917D01*
X103838347Y-56450000D01*
X103835398Y-56448256D01*
X103835397Y-56448255D01*
X103835396Y-56448255D01*
X103835393Y-56448254D01*
X103677573Y-56402402D01*
X103677567Y-56402401D01*
X103640701Y-56399500D01*
X103640694Y-56399500D01*
X101859306Y-56399500D01*
X101859298Y-56399500D01*
X101822432Y-56402401D01*
X101822426Y-56402402D01*
X101664606Y-56448254D01*
X101664605Y-56448254D01*
X101587374Y-56493928D01*
X101519650Y-56511109D01*
X101453388Y-56488949D01*
X101451369Y-56487514D01*
X101397969Y-56448717D01*
X101352730Y-56415849D01*
X101352728Y-56415848D01*
X101352729Y-56415848D01*
X101179807Y-56338857D01*
X101179802Y-56338855D01*
X101034001Y-56307865D01*
X100994646Y-56299500D01*
X100805354Y-56299500D01*
X100772897Y-56306398D01*
X100620197Y-56338855D01*
X100620192Y-56338857D01*
X100447270Y-56415848D01*
X100447265Y-56415851D01*
X100294129Y-56527111D01*
X100167466Y-56667785D01*
X100072821Y-56831715D01*
X100072818Y-56831722D01*
X100023241Y-56984306D01*
X100014326Y-57011744D01*
X99994540Y-57200000D01*
X100014326Y-57388256D01*
X100014327Y-57388259D01*
X100022100Y-57412182D01*
X100024095Y-57482023D01*
X99988015Y-57541856D01*
X99925314Y-57572684D01*
X99904169Y-57574500D01*
X99448348Y-57574500D01*
X99381309Y-57554815D01*
X99342809Y-57515597D01*
X99267712Y-57393844D01*
X99143656Y-57269788D01*
X99140819Y-57268038D01*
X99139283Y-57266330D01*
X99137989Y-57265307D01*
X99138163Y-57265085D01*
X99094096Y-57216094D01*
X99082872Y-57147132D01*
X99110713Y-57083049D01*
X99140817Y-57056962D01*
X99143656Y-57055212D01*
X99267712Y-56931156D01*
X99359814Y-56781834D01*
X99414999Y-56615297D01*
X99425500Y-56512509D01*
X99425499Y-55800013D01*
X110500000Y-55800013D01*
X110500000Y-55950000D01*
X111450000Y-55950000D01*
X111950000Y-55950000D01*
X112899999Y-55950000D01*
X112899999Y-55800028D01*
X112899998Y-55800013D01*
X112889505Y-55697302D01*
X112834358Y-55530880D01*
X112834356Y-55530875D01*
X112742315Y-55381654D01*
X112618345Y-55257684D01*
X112469124Y-55165643D01*
X112469119Y-55165641D01*
X112302697Y-55110494D01*
X112302690Y-55110493D01*
X112199986Y-55100000D01*
X111950000Y-55100000D01*
X111950000Y-55950000D01*
X111450000Y-55950000D01*
X111450000Y-55100000D01*
X111200029Y-55100000D01*
X111200012Y-55100001D01*
X111097302Y-55110494D01*
X110930880Y-55165641D01*
X110930875Y-55165643D01*
X110781654Y-55257684D01*
X110657684Y-55381654D01*
X110565643Y-55530875D01*
X110565641Y-55530880D01*
X110510494Y-55697302D01*
X110510493Y-55697309D01*
X110500000Y-55800013D01*
X99425499Y-55800013D01*
X99425499Y-55737492D01*
X99414999Y-55634703D01*
X99359814Y-55468166D01*
X99267712Y-55318844D01*
X99143656Y-55194788D01*
X99143655Y-55194787D01*
X99021273Y-55119302D01*
X98974548Y-55067354D01*
X98963325Y-54998392D01*
X98978982Y-54951763D01*
X99027179Y-54868284D01*
X99085674Y-54688256D01*
X99105460Y-54500000D01*
X99085674Y-54311744D01*
X99027179Y-54131716D01*
X98932533Y-53967784D01*
X98805871Y-53827112D01*
X98805870Y-53827111D01*
X98652734Y-53715851D01*
X98652729Y-53715848D01*
X98479807Y-53638857D01*
X98479802Y-53638855D01*
X98334001Y-53607865D01*
X98294646Y-53599500D01*
X98105354Y-53599500D01*
X98072897Y-53606398D01*
X97920197Y-53638855D01*
X97920192Y-53638857D01*
X97747270Y-53715848D01*
X97747265Y-53715851D01*
X97594129Y-53827111D01*
X97467466Y-53967785D01*
X97372821Y-54131715D01*
X97372818Y-54131722D01*
X97314327Y-54311740D01*
X97314326Y-54311744D01*
X97294540Y-54500000D01*
X97314326Y-54688256D01*
X97314327Y-54688259D01*
X97372818Y-54868277D01*
X97372820Y-54868281D01*
X97372821Y-54868284D01*
X97414891Y-54941152D01*
X97421018Y-54951764D01*
X97437490Y-55019664D01*
X97414637Y-55085691D01*
X97378727Y-55119302D01*
X97256342Y-55194789D01*
X97132289Y-55318842D01*
X97040187Y-55468163D01*
X97040186Y-55468166D01*
X96985001Y-55634703D01*
X96985001Y-55634704D01*
X96985000Y-55634704D01*
X96974500Y-55737483D01*
X88450500Y-55737483D01*
X88450500Y-44594500D01*
X88470185Y-44527461D01*
X88522989Y-44481706D01*
X88574500Y-44470500D01*
X121825500Y-44470500D01*
X121892539Y-44490185D01*
G37*
%TD.AperFunction*%
%TD*%
M02*
