%TF.GenerationSoftware,KiCad,Pcbnew,8.0.6*%
%TF.CreationDate,2025-06-23T21:39:08+01:00*%
%TF.ProjectId,blinky,626c696e-6b79-42e6-9b69-6361645f7063,0.1*%
%TF.SameCoordinates,Original*%
%TF.FileFunction,Legend,Top*%
%TF.FilePolarity,Positive*%
%FSLAX46Y46*%
G04 Gerber Fmt 4.6, Leading zero omitted, Abs format (unit mm)*
G04 Created by KiCad (PCBNEW 8.0.6) date 2025-06-23 21:39:08*
%MOMM*%
%LPD*%
G01*
G04 APERTURE LIST*
%ADD10C,0.100000*%
%ADD11C,0.120000*%
G04 APERTURE END LIST*
D10*
X94308646Y-48682657D02*
X94165789Y-48611228D01*
X94165789Y-48611228D02*
X93951503Y-48611228D01*
X93951503Y-48611228D02*
X93737217Y-48682657D01*
X93737217Y-48682657D02*
X93594360Y-48825514D01*
X93594360Y-48825514D02*
X93522931Y-48968371D01*
X93522931Y-48968371D02*
X93451503Y-49254085D01*
X93451503Y-49254085D02*
X93451503Y-49468371D01*
X93451503Y-49468371D02*
X93522931Y-49754085D01*
X93522931Y-49754085D02*
X93594360Y-49896942D01*
X93594360Y-49896942D02*
X93737217Y-50039800D01*
X93737217Y-50039800D02*
X93951503Y-50111228D01*
X93951503Y-50111228D02*
X94094360Y-50111228D01*
X94094360Y-50111228D02*
X94308646Y-50039800D01*
X94308646Y-50039800D02*
X94380074Y-49968371D01*
X94380074Y-49968371D02*
X94380074Y-49468371D01*
X94380074Y-49468371D02*
X94094360Y-49468371D01*
X95594360Y-50039800D02*
X95451503Y-50111228D01*
X95451503Y-50111228D02*
X95165789Y-50111228D01*
X95165789Y-50111228D02*
X95022931Y-50039800D01*
X95022931Y-50039800D02*
X94951503Y-49896942D01*
X94951503Y-49896942D02*
X94951503Y-49325514D01*
X94951503Y-49325514D02*
X95022931Y-49182657D01*
X95022931Y-49182657D02*
X95165789Y-49111228D01*
X95165789Y-49111228D02*
X95451503Y-49111228D01*
X95451503Y-49111228D02*
X95594360Y-49182657D01*
X95594360Y-49182657D02*
X95665789Y-49325514D01*
X95665789Y-49325514D02*
X95665789Y-49468371D01*
X95665789Y-49468371D02*
X94951503Y-49611228D01*
X96094360Y-49111228D02*
X96665788Y-49111228D01*
X96308645Y-48611228D02*
X96308645Y-49896942D01*
X96308645Y-49896942D02*
X96380074Y-50039800D01*
X96380074Y-50039800D02*
X96522931Y-50111228D01*
X96522931Y-50111228D02*
X96665788Y-50111228D01*
X96951503Y-49111228D02*
X97522931Y-49111228D01*
X97165788Y-48611228D02*
X97165788Y-49896942D01*
X97165788Y-49896942D02*
X97237217Y-50039800D01*
X97237217Y-50039800D02*
X97380074Y-50111228D01*
X97380074Y-50111228D02*
X97522931Y-50111228D01*
X98022931Y-50111228D02*
X98022931Y-49111228D01*
X98022931Y-48611228D02*
X97951503Y-48682657D01*
X97951503Y-48682657D02*
X98022931Y-48754085D01*
X98022931Y-48754085D02*
X98094360Y-48682657D01*
X98094360Y-48682657D02*
X98022931Y-48611228D01*
X98022931Y-48611228D02*
X98022931Y-48754085D01*
X98737217Y-49111228D02*
X98737217Y-50111228D01*
X98737217Y-49254085D02*
X98808646Y-49182657D01*
X98808646Y-49182657D02*
X98951503Y-49111228D01*
X98951503Y-49111228D02*
X99165789Y-49111228D01*
X99165789Y-49111228D02*
X99308646Y-49182657D01*
X99308646Y-49182657D02*
X99380075Y-49325514D01*
X99380075Y-49325514D02*
X99380075Y-50111228D01*
X100737218Y-49111228D02*
X100737218Y-50325514D01*
X100737218Y-50325514D02*
X100665789Y-50468371D01*
X100665789Y-50468371D02*
X100594360Y-50539800D01*
X100594360Y-50539800D02*
X100451503Y-50611228D01*
X100451503Y-50611228D02*
X100237218Y-50611228D01*
X100237218Y-50611228D02*
X100094360Y-50539800D01*
X100737218Y-50039800D02*
X100594360Y-50111228D01*
X100594360Y-50111228D02*
X100308646Y-50111228D01*
X100308646Y-50111228D02*
X100165789Y-50039800D01*
X100165789Y-50039800D02*
X100094360Y-49968371D01*
X100094360Y-49968371D02*
X100022932Y-49825514D01*
X100022932Y-49825514D02*
X100022932Y-49396942D01*
X100022932Y-49396942D02*
X100094360Y-49254085D01*
X100094360Y-49254085D02*
X100165789Y-49182657D01*
X100165789Y-49182657D02*
X100308646Y-49111228D01*
X100308646Y-49111228D02*
X100594360Y-49111228D01*
X100594360Y-49111228D02*
X100737218Y-49182657D01*
X102380075Y-49111228D02*
X102951503Y-49111228D01*
X102594360Y-48611228D02*
X102594360Y-49896942D01*
X102594360Y-49896942D02*
X102665789Y-50039800D01*
X102665789Y-50039800D02*
X102808646Y-50111228D01*
X102808646Y-50111228D02*
X102951503Y-50111228D01*
X103665789Y-50111228D02*
X103522932Y-50039800D01*
X103522932Y-50039800D02*
X103451503Y-49968371D01*
X103451503Y-49968371D02*
X103380075Y-49825514D01*
X103380075Y-49825514D02*
X103380075Y-49396942D01*
X103380075Y-49396942D02*
X103451503Y-49254085D01*
X103451503Y-49254085D02*
X103522932Y-49182657D01*
X103522932Y-49182657D02*
X103665789Y-49111228D01*
X103665789Y-49111228D02*
X103880075Y-49111228D01*
X103880075Y-49111228D02*
X104022932Y-49182657D01*
X104022932Y-49182657D02*
X104094361Y-49254085D01*
X104094361Y-49254085D02*
X104165789Y-49396942D01*
X104165789Y-49396942D02*
X104165789Y-49825514D01*
X104165789Y-49825514D02*
X104094361Y-49968371D01*
X104094361Y-49968371D02*
X104022932Y-50039800D01*
X104022932Y-50039800D02*
X103880075Y-50111228D01*
X103880075Y-50111228D02*
X103665789Y-50111228D01*
X106451503Y-49325514D02*
X106665789Y-49396942D01*
X106665789Y-49396942D02*
X106737218Y-49468371D01*
X106737218Y-49468371D02*
X106808646Y-49611228D01*
X106808646Y-49611228D02*
X106808646Y-49825514D01*
X106808646Y-49825514D02*
X106737218Y-49968371D01*
X106737218Y-49968371D02*
X106665789Y-50039800D01*
X106665789Y-50039800D02*
X106522932Y-50111228D01*
X106522932Y-50111228D02*
X105951503Y-50111228D01*
X105951503Y-50111228D02*
X105951503Y-48611228D01*
X105951503Y-48611228D02*
X106451503Y-48611228D01*
X106451503Y-48611228D02*
X106594361Y-48682657D01*
X106594361Y-48682657D02*
X106665789Y-48754085D01*
X106665789Y-48754085D02*
X106737218Y-48896942D01*
X106737218Y-48896942D02*
X106737218Y-49039800D01*
X106737218Y-49039800D02*
X106665789Y-49182657D01*
X106665789Y-49182657D02*
X106594361Y-49254085D01*
X106594361Y-49254085D02*
X106451503Y-49325514D01*
X106451503Y-49325514D02*
X105951503Y-49325514D01*
X107665789Y-50111228D02*
X107522932Y-50039800D01*
X107522932Y-50039800D02*
X107451503Y-49896942D01*
X107451503Y-49896942D02*
X107451503Y-48611228D01*
X108237217Y-50111228D02*
X108237217Y-49111228D01*
X108237217Y-48611228D02*
X108165789Y-48682657D01*
X108165789Y-48682657D02*
X108237217Y-48754085D01*
X108237217Y-48754085D02*
X108308646Y-48682657D01*
X108308646Y-48682657D02*
X108237217Y-48611228D01*
X108237217Y-48611228D02*
X108237217Y-48754085D01*
X108951503Y-49111228D02*
X108951503Y-50111228D01*
X108951503Y-49254085D02*
X109022932Y-49182657D01*
X109022932Y-49182657D02*
X109165789Y-49111228D01*
X109165789Y-49111228D02*
X109380075Y-49111228D01*
X109380075Y-49111228D02*
X109522932Y-49182657D01*
X109522932Y-49182657D02*
X109594361Y-49325514D01*
X109594361Y-49325514D02*
X109594361Y-50111228D01*
X110308646Y-50111228D02*
X110308646Y-48611228D01*
X110451504Y-49539800D02*
X110880075Y-50111228D01*
X110880075Y-49111228D02*
X110308646Y-49682657D01*
X111380075Y-49111228D02*
X111737218Y-50111228D01*
X112094361Y-49111228D02*
X111737218Y-50111228D01*
X111737218Y-50111228D02*
X111594361Y-50468371D01*
X111594361Y-50468371D02*
X111522932Y-50539800D01*
X111522932Y-50539800D02*
X111380075Y-50611228D01*
X114522932Y-48611228D02*
X113808646Y-48611228D01*
X113808646Y-48611228D02*
X113737218Y-49325514D01*
X113737218Y-49325514D02*
X113808646Y-49254085D01*
X113808646Y-49254085D02*
X113951504Y-49182657D01*
X113951504Y-49182657D02*
X114308646Y-49182657D01*
X114308646Y-49182657D02*
X114451504Y-49254085D01*
X114451504Y-49254085D02*
X114522932Y-49325514D01*
X114522932Y-49325514D02*
X114594361Y-49468371D01*
X114594361Y-49468371D02*
X114594361Y-49825514D01*
X114594361Y-49825514D02*
X114522932Y-49968371D01*
X114522932Y-49968371D02*
X114451504Y-50039800D01*
X114451504Y-50039800D02*
X114308646Y-50111228D01*
X114308646Y-50111228D02*
X113951504Y-50111228D01*
X113951504Y-50111228D02*
X113808646Y-50039800D01*
X113808646Y-50039800D02*
X113737218Y-49968371D01*
X115237217Y-49968371D02*
X115308646Y-50039800D01*
X115308646Y-50039800D02*
X115237217Y-50111228D01*
X115237217Y-50111228D02*
X115165789Y-50039800D01*
X115165789Y-50039800D02*
X115237217Y-49968371D01*
X115237217Y-49968371D02*
X115237217Y-50111228D01*
X116237218Y-48611228D02*
X116380075Y-48611228D01*
X116380075Y-48611228D02*
X116522932Y-48682657D01*
X116522932Y-48682657D02*
X116594361Y-48754085D01*
X116594361Y-48754085D02*
X116665789Y-48896942D01*
X116665789Y-48896942D02*
X116737218Y-49182657D01*
X116737218Y-49182657D02*
X116737218Y-49539800D01*
X116737218Y-49539800D02*
X116665789Y-49825514D01*
X116665789Y-49825514D02*
X116594361Y-49968371D01*
X116594361Y-49968371D02*
X116522932Y-50039800D01*
X116522932Y-50039800D02*
X116380075Y-50111228D01*
X116380075Y-50111228D02*
X116237218Y-50111228D01*
X116237218Y-50111228D02*
X116094361Y-50039800D01*
X116094361Y-50039800D02*
X116022932Y-49968371D01*
X116022932Y-49968371D02*
X115951503Y-49825514D01*
X115951503Y-49825514D02*
X115880075Y-49539800D01*
X115880075Y-49539800D02*
X115880075Y-49182657D01*
X115880075Y-49182657D02*
X115951503Y-48896942D01*
X115951503Y-48896942D02*
X116022932Y-48754085D01*
X116022932Y-48754085D02*
X116094361Y-48682657D01*
X116094361Y-48682657D02*
X116237218Y-48611228D01*
D11*
%TO.C,D1*%
X97240000Y-64225000D02*
X97240000Y-67085000D01*
X97240000Y-67085000D02*
X99160000Y-67085000D01*
X99160000Y-67085000D02*
X99160000Y-64225000D01*
%TO.C,R2*%
X110965000Y-60972936D02*
X110965000Y-61427064D01*
X112435000Y-60972936D02*
X112435000Y-61427064D01*
%TO.C,R3*%
X97465000Y-60972936D02*
X97465000Y-61427064D01*
X98935000Y-60972936D02*
X98935000Y-61427064D01*
%TO.C,R1*%
X110965000Y-56972936D02*
X110965000Y-57427064D01*
X112435000Y-56972936D02*
X112435000Y-57427064D01*
%TO.C,U1*%
X105225000Y-56545000D02*
X103275000Y-56545000D01*
X105225000Y-56545000D02*
X107175000Y-56545000D01*
X105225000Y-61665000D02*
X103275000Y-61665000D01*
X105225000Y-61665000D02*
X107175000Y-61665000D01*
X102525000Y-56640000D02*
X102285000Y-56310000D01*
X102765000Y-56310000D01*
X102525000Y-56640000D01*
G36*
X102525000Y-56640000D02*
G01*
X102285000Y-56310000D01*
X102765000Y-56310000D01*
X102525000Y-56640000D01*
G37*
%TO.C,C1*%
X97465000Y-57423752D02*
X97465000Y-56901248D01*
X98935000Y-57423752D02*
X98935000Y-56901248D01*
%TD*%
M02*
